<?xml version="1.0" encoding="UTF-8"?>
<svg id="Layer_2" data-name="Layer 2" xmlns="http://www.w3.org/2000/svg" viewBox="0 0 200 200">
  <defs>
    <style>
      .cls-1 {
        fill: #362947;
        font-family: CatfilesRegular, Catfiles;
        font-size: 22.53px;
      }

      .cls-2 {
        stroke-width: 3.9px;
      }

      .cls-2, .cls-3, .cls-4 {
        fill: none;
        stroke: #372947;
        stroke-miterlimit: 10;
      }

      .cls-5 {
        letter-spacing: 0em;
      }

      .cls-3 {
        stroke-width: 8.77px;
      }

      .cls-6 {
        fill: #f16066;
        stroke-width: 0px;
      }

      .cls-4 {
        stroke-width: 5.85px;
      }
    </style>
  </defs>
  <circle class="cls-6" cx="17.9" cy="78.54" r="11.82"/>
  <circle class="cls-6" cx="15.85" cy="147.06" r="11.82"/>
  <circle class="cls-6" cx="172.08" cy="147.06" r="11.82"/>
  <path class="cls-6" d="M149.35,22.05c-12.39,0-22.91,8.01-26.67,19.12,5.09-5.04,12.09-8.16,19.82-8.16,15.56,0,28.17,12.61,28.17,28.17,0,3.16-.53,6.2-1.49,9.04,5.15-5.1,8.34-12.18,8.34-20.01,0-15.56-12.61-28.17-28.17-28.17Z"/>
  <circle class="cls-4" cx="94.13" cy="112.62" r="28.17"/>
  <circle class="cls-4" cx="148.68" cy="49.27" r="28.17"/>
  <path class="cls-4" d="M178.67,43.32c.27,1.57.42,3.18.42,4.82,0,11.74-7.19,21.8-17.4,26.03,3.51,4.5,8.96,7.4,15.11,7.4,10.59,0,19.17-8.58,19.17-19.17,0-9.96-7.59-18.14-17.3-19.08Z"/>
  <path class="cls-3" d="M174.56,82.7c-5.48,0-10.4-2.31-13.9-5.99-3.64,1.71-7.69,2.68-11.98,2.68-8.2,0-15.57-3.5-20.72-9.09H7.85v84.65h172.57v-72.05c-1.85.59-3.82-.2-5.86-.2Z"/>
  <circle class="cls-2" cx="38.26" cy="112.62" r="11.94"/>
  <circle class="cls-2" cx="150.93" cy="112.62" r="11.94"/>
  <text class="cls-1" transform="translate(78.81 119.45)"><tspan x="0" y="0">Rp</tspan></text>
  <text class="cls-1" transform="translate(134.13 56.61)"><tspan class="cls-5" x="0" y="0">1</tspan><tspan x="11.96" y="0">0</tspan></text>
</svg>