<?xml version="1.0" encoding="UTF-8"?>
<svg id="Layer_4" data-name="Layer 4" xmlns="http://www.w3.org/2000/svg" viewBox="0 0 200 200">
  <defs>
    <style>
      .cls-1 {
        fill: #f16066;
      }

      .cls-1, .cls-2 {
        stroke-width: 0px;
      }

      .cls-2 {
        fill: #372947;
      }
    </style>
  </defs>
  <g>
    <path class="cls-1" d="M84.83,160.29l-12.32-25.33,13.69-12.32h24.87l7.3-2.74,7.99-8.21,13.69-4.11s5.25-21.22,4.79-22.36,22.82-12.55,22.82-12.55l1.14,15.74-7.76,17.11-22.36,54.99-39.02,23.5-14.83-23.73Z"/>
    <path class="cls-2" d="M39.68,63.72c-3.79-5.03-9.56-11.42-13.74-18.72-2.31-4.04-3.03-9.79-2.22-14.37.28-1.63,7.14-2.46,11.08-2.97,2.51-.32,5.19.54,7.77,1,6.41,1.14,12.11,1.85,17.17-4.54,2.38-3,9.44-5.8,12.17-4.39,12.19,6.26,26.3-6.38,37.1,4.11,3.89,3.79,5.34,10.01,8.23,14.93,2.81,4.79,5.01,11.6,9.28,13.53,10.7,4.84,15.43,12.49,15.99,21.85,11.04-1.89,21.82-4.06,32.7-5.35,2.45-.29,7.25,2.21,7.5,3.93.55,3.76.07,10.33-2.11,11.38-11.04,5.34-12.87,15.99-16.53,25.55-5.94,15.55-10.52,31.69-17.32,46.84-9.03,20.09-24.69,32.6-47.23,35.52-7.05.91-10.01-1.09-12.15-8.59-2.69-9.42-7.87-18.34-13.22-26.67-1.99-3.1-7.48-3.99-11.43-5.78-15.45-6.98-29.22-16.8-38.34-30.81-5.44-8.36-3.02-19.04,3.29-27.77,1.46-2.02,2.3-4.53,3.27-6.88,2.62-6.39,5.16-12.82,8.74-21.77ZM109.33,66.4c-16.22-10.14-21.67-7.31-24.41,11.37-.32,2.18-3.12,3.89-3.87,6.12-1.56,4.63-4.4,10.07-3.13,14.03,1.1,3.43,6.88,6.7,11.06,7.46,4.85.89,6.64,2.02,8.61,6.9,1.65,4.08,7.66,8.86,11.69,8.81,3.91-.04,7.94-5.65,11.53-9.19,1.23-1.22,1.33-3.59,1.94-5.4,1.14-.3,2.1-.8,3.02-.74,6.75.44,12.34-1.18,15.19-8.06,2.8-6.75-.84-11-5.35-15.34-1.52-1.46-1.7-4.38-2.34-6.67-1.02-3.6-.89-8.11-3.07-10.7-6.88-8.16-13.96-3.79-20.86,1.41ZM148.65,82.75c2.77,17.08-1.27,27.18-13.44,30.07-6.67,1.58-8.99,5.86-9.57,10.52-2.29,18.57-9.78,34.82-22.05,50.95,18.79-4.1,29.64-15.29,35.88-30.05,9.04-21.37,16.31-43.49,25.15-67.51-6.78,2.55-11.47,4.32-15.97,6.02ZM75.82,73.64c-8.01,5.15-14.75,3.43-22.49-.22-6.27-2.96-12.65,3.66-13.87,11.26-.69,4.34-3.4,8.32-4.69,12.61-1.25,4.16-3.52,9.15-2.23,12.6,1.26,3.37,6.28,6.97,10,7.4,5.73.66,8.3,1.74,9.92,7.91.96,3.65,6.31,7.55,10.37,8.55,3.11.77,9.7-2.04,10.55-4.63,2.62-7.98,6.41-13.16,15.86-13.13-6.3-3.2-11.05-4.72-17.89-.72-4.31,2.52-13.41,1.36-17.6-1.8-3.81-2.88-6.28-11.39-4.91-16.14,1.35-4.69,8.07-10.65,12.75-10.94,8.71-.55,11.12-5.86,14.22-12.75ZM112.17,54.59c-1.35-5.54-2.93-9.58-3.23-13.72-.77-10.54-9.4-16.34-18.39-11.12-4.58,2.66-7.28,3.15-12.09.18-9.09-5.61-18.43.87-18.84,11.68-.13,3.31-2.64,6.48-3.72,9.82-1.3,4.03-2.24,8.18-3.34,12.28,5.59,1.29,11.03,7.94,16.97,1.05-2.43-12.3.14-20.24,8.28-23.07,9.03-3.14,16.37-.91,21.66,8.09,2.76,4.69,7.6,8.04,12.71,4.82ZM101.29,160.94c.75.4,1.49.79,2.24,1.19,4.53-10.38,9.05-20.76,13.32-30.56-9.04-2.19-16.3-3.95-23.6-5.72,2.59,11.33,5.31,23.21,8.03,35.09ZM73.08,104.02c-4.08-4.29-6.89-7.24-9.71-10.2-2.55,2.81-5.11,5.62-7.66,8.42,2.92,2.48,5.53,5.77,8.91,7.06,1.55.59,4.61-2.75,8.45-5.29ZM84.64,127.99c-3.15,4.54-5.28,7.61-7.38,10.64,4.5,5.35,8.62,10.26,12.75,15.16.62-.33,1.24-.65,1.86-.98-2.27-7.81-4.54-15.62-7.22-24.82ZM80.62,49.84,47.04,50.95c1.74-4.91,2.88-8.12,4.02-11.33-4.14-1.04-8.29-2.08-12.43-3.11-.2.81-.4,1.63-.59,2.44,2.51,3.34,5.01,6.68,9.01,12.01Z"/>
    <path class="cls-2" d="M125.14,89.54c-.11,9.16-7.3,16.28-16.3,16.15-9.02-.13-15.98-7.37-15.9-16.54.08-8.85,7.67-16.41,16.33-16.27,8.97.15,15.98,7.5,15.86,16.66ZM102.17,88.99c5.41,4.03,3.66,8.21,6.54,8.02,2.86-.18,7.34-4.57,7.58-7.41.21-2.5-4.23-7.26-7.05-7.61-2.87-.36-1.36,3.43-7.07,7Z"/>
  </g>
  <circle class="cls-1" cx="109.24" cy="88.99" r="10.5"/>
  <circle class="cls-1" cx="64.35" cy="101.37" r="9.87"/>
  <circle class="cls-1" cx="83.4" cy="54.59" r="7.24"/>
</svg>