<?xml version="1.0" encoding="UTF-8"?>
<svg id="Layer_1" data-name="Layer 1" xmlns="http://www.w3.org/2000/svg" viewBox="0 0 200 200">
  <defs>
    <style>
      .cls-1 {
        fill: #f16066;
      }

      .cls-1, .cls-2 {
        stroke-width: 0px;
      }

      .cls-2 {
        fill: #372947;
      }
    </style>
  </defs>
  <path class="cls-1" d="M50.73,55.32s21.69-28.37,62.9-8.03c36.23,17.89,19.41,68.33,19.41,68.33,0,0,29.58-59.62,16.51-75.9S114.94,1.89,93.84,10.38s-41.73,15.82-43.11,44.94Z"/>
  <path class="cls-2" d="M110.38,136.09c-1.08.52-17.06,7.47-7.98,28.35,4.02,9.24,9.07,18.12,4.09,28.23-.03.06-.06.13-.1.19-2.09,3.98-8.31,2.31-8.2-2.18,0-.03,0-.07,0-.1.1-3.79,8.3-2.62-.64-17.42-7.62-12.6-5.37-20.2-6.55-33.84-.18-2.06-3.79-4.32-6.27-5.62-25.8-13.47-45.8-56.66-39.1-84.85C52.7,19.01,81.78-.11,110.73,6.04c30.05,6.38,49.86,34.93,43.91,65.36-5.36,27.39-16.71,51.37-44.26,64.69ZM52.97,60.74c-.02.28-.02.57.01.85,2,20.25,8.88,38.81,22.9,54.2,15.44,16.94,32.96,16.79,48.42-.24,12-13.23,18.8-29.07,21.64-46.58,3.06-18.89-3.24-34.54-18.39-45.81-14.85-11.04-31.52-12.59-48.22-4.27-16.97,8.45-25.04,22.98-26.35,41.85Z"/>
</svg>