<?xml version="1.0" encoding="UTF-8"?>
<svg id="Layer_3" data-name="Layer 3" xmlns="http://www.w3.org/2000/svg" viewBox="0 0 200 200">
  <defs>
    <style>
      .cls-1 {
        fill: #f16066;
      }

      .cls-1, .cls-2 {
        stroke-width: 0px;
      }

      .cls-2 {
        fill: #372947;
      }
    </style>
  </defs>
  <path class="cls-1" d="M79.39,40.3l-.23,12.04,23.73-8.71,16.39,7.91,7.57-4.01s8.94-1.83-.11-10.32-20.52-13.76-30.73-11.69-16.62,14.79-16.62,14.79Z"/>
  <path class="cls-1" d="M75.27,78.4l-29.96,17.73,1.61,11.01s5.2,3.29,5.81,3.06,19.34-7.41,19.34-7.41c0,0,1.38,5.58,1.38,5.81s-4.74,23.92-4.74,23.92l-.69,10.09,8.25,1.99-5.43,22.7,8.56,8.18,7.8-1.53,9.1-26.29,12.92-.99,7.03,26.14,9.86,4.36,6.88-8.64-3.29-24.69,9.86-5.5-10.39-36.61,12.61,4.89,16.43.99,2.45-9.63-7.49-7.64-27.59-13.68,2.98-21.48s6.65-11.92,6.34-12.08,24.69,3.97,24.69,3.97l-7.87-16.97s-8.64-11.69-21.55-7.11-40.82,1.99-40.82,1.99l-31.64-1.99-10.32,14.83-1.53,8.94,29.27-3.52,4.59,12.69-2.83-17.5,11.39-12.84,31.72,1.91,11.46,14.06-7.8,30.04,2.14,17.73,6.42,26.22,7.49,23.08-25.15,9.71-41.58-5.43-7.64-6.8,12-41.12,2.75-19.11-2.68-15.9,1.68,15.52-3.82,2.9Z"/>
  <path class="cls-2" d="M116.75,23.61c7.04-.68,13.76-5.76,20.7-5.93,12.45-.31,27.65,17.25,26.31,29.26-.18,1.64-4.78,4.19-7.09,3.95-7.57-.78-15.02-2.65-21.56-3.91-2.62,8.88-5.07,17.19-7.85,26.64,8.05,4.09,17.36,8.76,26.61,13.54,9.77,5.04,12.85,11.63,9,19.01-3.89,7.47-10.87,8.86-20.67,4.15-2.28-1.1-4.61-2.1-8.56-3.89,2.75,9.16,4.51,17.19,7.59,24.68,3.42,8.31,2.76,13.74-8.08,15.15,1.25,6.93,2.5,12.78,3.34,18.69,1.27,9.03-2.93,15.49-10.58,16.76-7.85,1.3-13.99-3.17-15.88-11.98-1.25-5.82-2.03-11.74-3.13-18.31-2.87-.13-5.55-.25-8.77-.39-1.09,6.45-1.92,12.33-3.1,18.14-1.88,9.21-8.28,14.01-16.32,12.51-7.55-1.41-11.6-7.97-10.26-17.02.87-5.88,2.09-11.71,3.13-17.42-10.95-5.76-10.9-5.74-7.06-17.88,1.97-6.24,3.71-12.56,5.52-18.86.23-.79.22-1.65.48-3.7-4.05,1.84-7.46,3.51-10.95,4.96-7.42,3.09-14.22.87-17.57-5.62-3.32-6.44-1.17-13.47,6.04-17.38,10.01-5.43,20.3-10.36,29.76-15.14-2.72-9.02-5.3-17.56-8.05-26.67-6.46,1.25-13.97,2.65-21.45,4.16-6.34,1.28-8.48-1.16-7.17-7.4,4.71-22.41,23.21-31.36,43.66-21.16,1.51.75,8.16,1.27,9.96,1.12M69.53,137.91c22.24,8.07,43.77,8.19,65.9-.02-5.94-20.08-11.7-39.56-16.89-57.11h-32.24c-5.32,18.11-10.99,37.42-16.78,57.13ZM98.2,48.03c-5.63,3.2-12.03,6.84-18.32,10.42,5.07,11.97,14.72,18.32,25.13,16.85,10.68-1.51,18.06-8.39,19.12-16.56-8.86-3.66-17.37-7.17-25.94-10.71ZM122.13,49.53c2.02.17,3.59-1.79,2.97-3.72-3.95-12.42-13.44-19.37-24.69-18.17-10.65,1.13-18.74,8.64-20.27,20.69-.19,1.51,1.59,2.46,2.72,1.42l14.43-13.27c.92-.84,2.3-.69,2.97.28,5.01,7.19,12.04,11.93,21.86,12.77ZM80.03,28.64c-12.33-8.53-25.38-2.56-30.61,15.05,11.19-4.24,25.51.44,30.61-15.05ZM124.74,28.37c5.51,15.51,19.43,11.28,30.56,15.23-5.17-17.23-17.58-23.13-30.56-15.23ZM77.55,81.88c-9.41,4.71-17.92,8.64-26.03,13.27-1.85,1.06-4.45,3.73-3.05,6.78.81,1.77,4.3,4.08,6.39,3.85,11.38-1.26,20.51-10.75,22.7-23.91ZM127.5,81.87c2.02,13.42,10.3,22.17,22.41,23.83,2.09.29,3.94.68,6.55-3.66,2.13-3.53-.67-5.38-2.23-6.27-8.5-4.85-17.34-9.1-26.73-13.9ZM78.87,148.63c-1.3,6.67-3.05,12.42-3.26,18.22-.02.66.17,1.33.49,2,1.82,3.8,6.97,4.79,10,1.86.5-.49.88-1.01,1.08-1.6,1.91-5.74,2.44-11.95,3.6-18.41-4.25-.74-7.56-1.32-11.91-2.08ZM114.01,150.89c1.29,6.82,1.68,12.61,3.66,17.79.27.7.75,1.31,1.37,1.87,3.28,2.97,8.72,1.66,10.02-2.57.15-.5.23-1,.21-1.49-.26-5.79-1.99-11.51-3.22-17.8-4.16.76-7.66,1.4-12.04,2.21Z"/>
</svg>