<?xml version="1.0" encoding="UTF-8"?>
<svg id="Layer_6" data-name="Layer 6" xmlns="http://www.w3.org/2000/svg" viewBox="0 0 200 200">
  <defs>
    <style>
      .cls-1 {
        fill: #f16066;
        stroke-width: 0px;
      }

      .cls-2 {
        fill: none;
        stroke: #372947;
        stroke-miterlimit: 10;
        stroke-width: 10px;
      }
    </style>
  </defs>
  <path class="cls-1" d="M103.67,33.23c-12,0-21.95,13.41-23.72,30.93,3.69-3.51,8.04-5.55,12.71-5.55,13.25,0,24,16.36,24,36.54,0,1.91-.1,3.78-.28,5.61,6.78-6.46,11.29-17.92,11.29-30.99,0-20.18-10.75-36.54-24-36.54Z"/>
  <circle class="cls-1" cx="30.63" cy="174.63" r="15.13"/>
  <circle class="cls-1" cx="169.13" cy="173.71" r="15.13"/>
  <circle class="cls-1" cx="167.9" cy="26.96" r="15.13"/>
  <circle class="cls-1" cx="30.94" cy="25.74" r="15.13"/>
  <rect class="cls-2" x="20.36" y="15.16" width="159.29" height="169.68"/>
  <ellipse class="cls-2" cx="100" cy="73.13" rx="24" ry="36.54"/>
  <path class="cls-2" d="M41.79,149.71s7.64-24.76,58.09-25.07,58.09,22.01,58.09,22.01"/>
</svg>